<svg xmlns="http://www.w3.org/2000/svg" viewBox="0 0 160 160" role="img" aria-labelledby="title desc">
  <title id="title">Avery Chen avatar</title>
  <desc id="desc">A warm illustrated portrait avatar for the infission preview.</desc>
  <defs>
    <linearGradient id="bg" x1="0" y1="0" x2="1" y2="1">
      <stop offset="0" stop-color="#dff77a"/>
      <stop offset="1" stop-color="#8fc63d"/>
    </linearGradient>
  </defs>
  <circle cx="80" cy="80" r="80" fill="url(#bg)"/>
  <path d="M37 151c5-31 21-47 43-47s38 16 43 47" fill="#111214"/>
  <path d="M48 64c0-26 13-42 32-42s32 16 32 42v18c0 22-14 35-32 35S48 104 48 82Z" fill="#a86f4d"/>
  <path d="M45 64c2-30 16-45 36-45 24 0 35 17 35 42-10-7-18-15-24-25-8 13-22 22-47 28Z" fill="#17191d"/>
  <circle cx="68" cy="76" r="3" fill="#17191d"/><circle cx="92" cy="76" r="3" fill="#17191d"/>
  <path d="M68 94c7 5 17 5 24 0" fill="none" stroke="#17191d" stroke-linecap="round" stroke-width="3"/>
  <path d="M57 63c5-5 10-6 16-3M87 60c6-3 11-2 16 3" fill="none" stroke="#17191d" stroke-linecap="round" stroke-width="3"/>
</svg>
